HIERARCHY
ROOT Hips
{
	OFFSET -3.958830 18.904000 13.208200
	CHANNELS 6 Xposition Yposition Zposition Zrotation Yrotation Xrotation 
	JOINT LHipJoint
	{
		OFFSET 0.000000 0.000000 0.000000
		CHANNELS 3 Zrotation Yrotation Xrotation
		JOINT LeftUpLeg
		{
			OFFSET 1.800000 -1.400000 0.085000
			CHANNELS 3 Zrotation Yrotation Xrotation
			JOINT LeftLeg
			{
				OFFSET 2.215000 -6.000000 0.000000
				CHANNELS 3 Zrotation Yrotation Xrotation
				JOINT LeftFoot
				{
					OFFSET 2.500000 -6.900000 0.000000
					CHANNELS 3 Zrotation Yrotation Xrotation
					JOINT LeftToeBase
					{
						OFFSET 0.200000 -0.500000 1.950000
						CHANNELS 3 Zrotation Yrotation Xrotation
						End Site
						{
							OFFSET 0.000000 0.000000 0.000000
						}
					}
				}
			}
		}
	}
	JOINT RHipJoint
	{
		OFFSET 0.000000 0.000000 0.000000
		CHANNELS 3 Zrotation Yrotation Xrotation
		JOINT RightUpLeg
		{
			OFFSET -1.800000 -1.400000 0.085000
			CHANNELS 3 Zrotation Yrotation Xrotation
			JOINT RightLeg
			{
				OFFSET -2.215000 -6.000000 0.000000
				CHANNELS 3 Zrotation Yrotation Xrotation
				JOINT RightFoot
				{
					OFFSET -2.500000 -6.900000 0.000000
					CHANNELS 3 Zrotation Yrotation Xrotation
					JOINT RightToeBase
					{
						OFFSET -0.200000 -0.500000 1.950000
						CHANNELS 3 Zrotation Yrotation Xrotation
						End Site
						{
							OFFSET 0.000000 0.000000 0.000000
						}
					}
				}
			}
		}
	}
	JOINT LowerBack
	{
		OFFSET 0.000000 0.000000 0.000000
		CHANNELS 3 Zrotation Yrotation Xrotation
		JOINT Spine
		{
			OFFSET -0.087000 1.940000 -0.288900
			CHANNELS 3 Zrotation Yrotation Xrotation
			JOINT Spine1
			{
				OFFSET 0.000000 1.950000 0.060000
				CHANNELS 3 Zrotation Yrotation Xrotation
				JOINT Neck
				{
					OFFSET 0.000000 0.000000 0.000000
					CHANNELS 3 Zrotation Yrotation Xrotation
					JOINT Neck1
					{
						OFFSET 0.000000 1.600000 0.340000
						CHANNELS 3 Zrotation Yrotation Xrotation
						JOINT Head
						{
							OFFSET 0.000000 1.667000 -0.240000
							CHANNELS 3 Zrotation Yrotation Xrotation
							End Site
							{
								OFFSET 0.000000 0.000000 0.000000
							}
						}
					}
				}
				JOINT LeftShoulder
				{
					OFFSET 0.000000 0.000000 0.000000
					CHANNELS 3 Zrotation Yrotation Xrotation
					JOINT LeftArm
					{
						OFFSET 2.700000 1.550000 -0.730000
						CHANNELS 3 Zrotation Yrotation Xrotation
						JOINT LeftForeArm
						{
							OFFSET 5.450000 0.000000 0.000000
							CHANNELS 3 Zrotation Yrotation Xrotation
							JOINT LeftHand
							{
								OFFSET 3.450000 0.000000 0.000000
								CHANNELS 3 Zrotation Yrotation Xrotation
								JOINT LeftHandIndex1
								{
									OFFSET 0.750000 0.000000 0.000000
									CHANNELS 3 Zrotation Yrotation Xrotation
									End Site
									{
										OFFSET 0.000000 0.000000 0.000000
									}
								}
							}
						}
					}
				}
				JOINT RightShoulder
				{
					OFFSET 0.000000 0.000000 0.000000
					CHANNELS 3 Zrotation Yrotation Xrotation
					JOINT RightArm
					{
						OFFSET -2.700000 1.550000 -0.730000
						CHANNELS 3 Zrotation Yrotation Xrotation
						JOINT RightForeArm
						{
							OFFSET -5.450000 0.000000 0.000000
							CHANNELS 3 Zrotation Yrotation Xrotation
							JOINT RightHand
							{
								OFFSET -3.450000 0.000000 0.000000
								CHANNELS 3 Zrotation Yrotation Xrotation
								JOINT RightHandIndex1
								{
									OFFSET -0.750000 0.000000 0.000000
									CHANNELS 3 Zrotation Yrotation Xrotation
									End Site
									{
										OFFSET 0.000000 0.000000 0.000000
									}
								}
							}
						}
					}
				}
			}
		}
	}
}
MOTION
Frames: 9
Frame Time: 0.016667
-0.230160 17.032070 -7.114840 -4.346960 3.436841 -2.984258 -15.212793 13.275657 3.629695 20.538601 -1.634993 -18.361386 -14.816580 12.639531 27.189550 -0.044456 7.589216 1.852969 0.255360 -0.087830 0.180300 18.067837 -10.893277 2.285540 -21.059979 1.618677 -20.488568 8.461651 -9.413140 29.529736 -0.422710 -5.125829 2.548070 -0.048450 0.279580 0.242320 -3.298445 -2.010738 -8.114791 7.318759 -0.451635 16.515706 -0.494130 0.818929 3.829425 1.924060 -1.012132 -8.882644 -5.747338 1.927099 49.105924 -0.680410 -0.205910 -8.439870 -23.208421 -7.408901 2.489778 -48.088113 -5.840586 -3.191045 -15.638272 -17.579040 0.177655 -3.787194 2.702428 0.687560 0.076770 0.066710 0.180350 19.837960 9.390409 5.200690 52.695337 4.838286 -10.534870 22.125940 36.345821 3.519848 2.052435 -1.229773 -0.238050 0.309540 0.098640 -0.194720 
-0.256440 17.011870 -7.131840 -4.384144 3.805184 -2.663583 -15.246856 13.223571 3.715680 20.914372 -1.774937 -19.256012 -15.009033 12.884238 27.797978 -0.040263 7.719660 1.796555 0.254830 -0.094410 0.191790 18.049471 -10.827166 2.292960 -20.867119 1.724932 -21.005576 8.425265 -9.320547 29.448394 -0.410173 -5.070711 2.562779 -0.048990 0.268920 0.241120 -3.229673 -2.048060 -8.170497 6.901528 -0.346569 17.019772 -0.225030 0.960815 3.693956 1.969098 -0.770583 -8.874305 -5.213149 1.309970 48.147647 -1.117360 -0.381320 -8.985770 -23.162547 -7.633105 2.482583 -47.844855 -5.961297 -3.243960 -16.014538 -17.755571 0.235770 -3.785627 2.707336 0.691180 0.073850 0.064770 0.170520 19.725802 9.553768 5.276849 52.516684 4.705609 -10.717174 22.960575 36.874405 3.767454 2.049377 -1.242132 -0.241870 0.304730 0.099650 -0.204820 
-0.306270 16.958920 -7.167100 -4.607312 4.493069 -2.142686 -15.257718 13.100551 3.863061 21.642157 -2.008932 -20.871457 -15.201079 13.236601 28.830001 -0.030350 7.917766 1.713367 0.264750 -0.088040 0.202200 18.068566 -10.746286 2.293942 -20.444232 1.850973 -21.835667 8.175058 -9.030799 28.982266 -0.388863 -4.913061 2.611128 -0.042750 0.254450 0.238100 -3.256272 -2.018264 -8.246519 7.149832 -0.485532 17.857990 -0.511599 0.969953 3.786870 1.952802 -0.923288 -8.985013 -5.418439 0.705171 46.415520 -1.338960 -0.898550 -10.168140 -22.281600 -7.991907 2.547267 -47.637260 -6.431867 -3.398499 -17.030353 -18.803938 0.451901 -3.764339 2.729771 0.699070 0.060000 0.067970 0.169980 18.777107 10.062187 5.511500 52.785035 4.962246 -10.961675 24.672780 38.081647 4.296493 2.049543 -1.272355 -0.243580 0.302600 0.092690 -0.209500 
-0.382480 16.878570 -7.210590 -4.617102 5.269619 -1.441286 -15.325019 12.921886 4.069019 22.595951 -2.273097 -22.761344 -15.891489 13.815492 29.844978 -0.007006 8.205909 1.595142 0.272950 -0.083210 0.225860 18.052231 -10.564574 2.324535 -20.452621 2.068408 -23.057996 8.459778 -8.969819 28.747279 -0.379687 -4.832903 2.622963 -0.036600 0.230740 0.233360 -3.146768 -2.065502 -8.367093 6.308691 -0.215752 19.012260 -0.201141 1.300062 3.840046 1.941622 -0.508557 -9.164809 -4.447027 -0.187616 44.308239 -1.390710 -1.105170 -11.870180 -21.358784 -8.730804 2.704766 -46.954916 -7.065896 -3.565483 -18.813069 -20.356572 0.867701 -3.741602 2.755412 0.713760 0.043310 0.076630 0.158050 17.873575 10.682177 5.843124 52.746245 4.931193 -11.457819 26.970181 40.175077 5.144431 2.044644 -1.306524 -0.249210 0.299120 0.086090 -0.224300 
-0.465870 16.778240 -7.275000 -4.313414 6.248330 -0.698346 -15.408490 12.725093 4.318559 23.509883 -2.690787 -25.031832 -16.617892 14.559339 31.413638 0.031659 8.573482 1.457511 0.300160 -0.058570 0.253090 18.033101 -10.308536 2.380489 -20.985678 2.289079 -24.709702 8.915142 -9.105512 29.064165 -0.397489 -4.842940 2.606188 -0.022430 0.200850 0.219440 -3.008957 -2.226551 -8.527977 5.089192 -0.042902 20.877521 0.184052 1.529980 3.713806 1.753810 -0.592655 -9.524703 -4.514381 -0.828911 42.108851 -0.720120 -1.607230 -14.584650 -20.397747 -9.868049 3.026011 -45.841426 -7.459325 -4.004040 -20.981349 -22.445168 1.413001 -3.683589 2.781700 0.750840 0.005910 0.097980 0.161450 17.277971 12.093950 6.373418 52.031818 4.865872 -12.026920 29.685224 42.157046 6.165149 2.038479 -1.333062 -0.257660 0.310760 0.066360 -0.236950 
-0.556100 16.676410 -7.350830 -3.844724 7.206092 -0.403107 -15.483785 12.537313 4.562848 24.430654 -3.132339 -26.990651 -17.369443 15.325703 33.001691 0.117971 8.915986 1.329558 0.336090 -0.018950 0.291330 18.013006 -10.052751 2.467796 -21.997358 2.460383 -26.161730 9.729181 -9.474478 29.710969 -0.447902 -4.960128 2.551003 -0.022740 0.142380 0.211060 -2.878924 -2.389788 -8.727929 3.742969 0.309456 23.704527 0.281705 1.974986 3.167264 1.670212 -0.458779 -10.322153 -4.334841 -1.513402 41.243108 0.285880 -2.050420 -17.194180 -20.010831 -11.893039 3.638386 -43.370393 -7.420013 -4.715990 -23.546639 -25.231795 2.258196 -3.589726 2.826538 0.788000 -0.051060 0.145230 0.164530 17.045424 14.311435 7.400354 50.871703 3.934832 -13.148704 32.739951 45.008937 7.473969 2.046754 -1.366242 -0.236920 0.298610 0.027660 -0.242160 
-0.643620 16.562990 -7.433330 -3.744884 8.338899 -0.393921 -15.529850 12.238389 4.871069 26.019822 -3.472845 -29.320125 -18.261427 16.418378 35.153019 0.216621 9.418259 1.129474 0.367060 0.016030 0.319650 18.046583 -9.772250 2.556314 -22.931723 2.782939 -27.565240 10.751345 -10.254293 31.456320 -0.545242 -5.284334 2.409129 -0.029200 0.065380 0.224870 -2.869619 -2.430138 -8.959209 3.533624 0.266201 27.256405 -0.322497 2.254948 2.369715 1.764625 -0.452420 -11.147656 -4.327225 -2.278037 40.485886 0.855080 -2.381300 -20.826050 -19.254518 -13.748779 4.217876 -40.872457 -7.008477 -5.678288 -27.097258 -28.498905 3.466464 -3.496172 2.891564 0.844220 -0.117250 0.208460 0.153880 15.993917 16.416758 8.337000 50.402597 3.519634 -14.138831 35.780363 47.479792 8.850760 2.055822 -1.387445 -0.206640 0.266320 0.008520 -0.253400 
-0.724290 16.457030 -7.518080 -4.082977 9.280339 -1.097497 -15.552303 11.900787 5.211914 28.292748 -3.584666 -31.311328 -19.448175 17.799851 37.401728 0.357812 10.021213 0.910112 0.388820 0.036610 0.348830 18.110367 -9.474693 2.650494 -23.622950 3.360487 -28.718875 11.964271 -11.416691 34.273739 -0.687468 -5.790793 2.220561 -0.053120 -0.010210 0.230270 -2.936186 -2.431763 -9.224812 4.353436 -0.134545 32.042731 -1.528578 2.624201 0.739597 1.930788 -0.699851 -12.160341 -5.015578 -2.788114 40.651316 2.343810 -2.846360 -24.784890 -19.368917 -15.864275 4.768153 -37.725267 -6.113891 -6.665172 -30.222161 -31.245865 4.690304 -3.391924 2.930416 0.911490 -0.195540 0.275790 0.138700 15.670596 18.899378 9.523321 49.058730 2.051352 -15.325286 40.553912 49.924732 11.032232 2.078894 -1.389892 -0.177440 0.243080 -0.009090 -0.263100 
-0.805330 16.357650 -7.590690 -4.280819 9.904989 -2.187818 -15.598439 11.593827 5.508177 30.551105 -3.536442 -32.790012 -20.762485 19.353544 39.593450 0.503650 10.645611 0.692347 0.389340 0.026920 0.373510 18.155981 -9.113306 2.787183 -24.668065 4.140572 -30.009920 13.264423 -12.983729 38.055995 -0.871258 -6.514491 1.962492 -0.088590 -0.083080 0.236810 -2.931485 -2.540322 -9.483364 4.646831 -0.462430 37.535658 -2.381757 3.078559 -1.972720 2.258725 -1.009276 -13.206438 -5.895873 -3.092942 41.209967 2.961200 -2.927120 -28.425290 -20.420929 -17.576641 5.251340 -34.316287 -3.941839 -7.782083 -34.041948 -34.034571 6.288280 -3.296311 2.967287 0.984740 -0.267020 0.336200 0.111840 16.128623 21.220757 10.582366 46.889686 0.146754 -16.035718 46.006358 50.800226 13.357387 2.109617 -1.372742 -0.161790 0.218200 -0.010860 -0.283480 
